<svg width="15" height="18" viewBox="0 0 15 18" fill="none" xmlns="http://www.w3.org/2000/svg">
<path d="M13.66 8.20003C13.43 7.90003 13.15 7.64003 12.89 7.38003C12.22 6.78003 11.46 6.35003 10.82 5.72003C9.32999 4.26003 8.99999 1.85003 9.94999 3.05176e-05C8.99999 0.230031 8.16999 0.750031 7.45999 1.32003C4.86999 3.40003 3.84999 7.07003 5.06999 10.22C5.10999 10.32 5.14999 10.42 5.14999 10.55C5.14999 10.77 4.99999 10.97 4.79999 11.05C4.56999 11.15 4.32999 11.09 4.13999 10.93C4.08289 10.8828 4.03537 10.8251 3.99999 10.76C2.86999 9.33003 2.68999 7.28003 3.44999 5.64003C1.77999 7.00003 0.869989 9.30003 0.999989 11.47C1.05999 11.97 1.11999 12.47 1.28999 12.97C1.42999 13.57 1.69999 14.17 1.99999 14.7C3.07999 16.43 4.94999 17.67 6.95999 17.92C9.09999 18.19 11.39 17.8 13.03 16.32C14.86 14.66 15.5 12 14.56 9.72003L14.43 9.46003C14.22 9.00003 13.66 8.20003 13.66 8.20003ZM10.5 14.5C10.22 14.74 9.75999 15 9.39999 15.1C8.27999 15.5 7.15999 14.94 6.49999 14.28C7.68999 14 8.39999 13.12 8.60999 12.23C8.77999 11.43 8.45999 10.77 8.32999 10C8.20999 9.26003 8.22999 8.63003 8.49999 7.94003C8.68999 8.32003 8.88999 8.70003 9.12999 9.00003C9.89999 10 11.11 10.44 11.37 11.8C11.41 11.94 11.43 12.08 11.43 12.23C11.46 13.05 11.1 13.95 10.5 14.5Z" fill="#262626"/>
</svg>
