<svg width="138" height="48" viewBox="0 0 138 48" fill="none" xmlns="http://www.w3.org/2000/svg">
<path d="M16.896 19.64C16.4907 18.8933 15.904 18.328 15.136 17.944C14.3893 17.5387 13.504 17.336 12.48 17.336C10.7093 17.336 9.29067 17.9227 8.224 19.096C7.15733 20.248 6.624 21.7947 6.624 23.736C6.624 25.8053 7.17867 27.4267 8.288 28.6C9.41867 29.752 10.9653 30.328 12.928 30.328C14.272 30.328 15.4027 29.9867 16.32 29.304C17.2587 28.6213 17.9413 27.64 18.368 26.36H11.424V22.328H23.328V27.416C22.9227 28.7813 22.2293 30.0507 21.248 31.224C20.288 32.3973 19.0613 33.3467 17.568 34.072C16.0747 34.7973 14.3893 35.16 12.512 35.16C10.2933 35.16 8.30933 34.68 6.56 33.72C4.832 32.7387 3.47733 31.384 2.496 29.656C1.536 27.928 1.056 25.9547 1.056 23.736C1.056 21.5173 1.536 19.544 2.496 17.816C3.47733 16.0667 4.832 14.712 6.56 13.752C8.288 12.7707 10.2613 12.28 12.48 12.28C15.168 12.28 17.4293 12.9307 19.264 14.232C21.12 15.5333 22.3467 17.336 22.944 19.64H16.896ZM105.768 35.256C104.019 35.256 102.44 34.8827 101.032 34.136C99.6456 33.3893 98.5469 32.3227 97.7363 30.936C96.9469 29.5493 96.5523 27.928 96.5523 26.072C96.5523 24.2373 96.9576 22.6267 97.7682 21.24C98.5789 19.832 99.6883 18.7547 101.096 18.008C102.504 17.2613 104.083 16.888 105.832 16.888C107.582 16.888 109.16 17.2613 110.568 18.008C111.976 18.7547 113.086 19.832 113.896 21.24C114.707 22.6267 115.112 24.2373 115.112 26.072C115.112 27.9067 114.696 29.528 113.864 30.936C113.054 32.3227 111.934 33.3893 110.504 34.136C109.096 34.8827 107.518 35.256 105.768 35.256ZM105.768 30.52C106.814 30.52 107.699 30.136 108.424 29.368C109.171 28.6 109.544 27.5013 109.544 26.072C109.544 24.6427 109.182 23.544 108.456 22.776C107.752 22.008 106.878 21.624 105.832 21.624C104.766 21.624 103.88 22.008 103.176 22.776C102.472 23.5227 102.12 24.6213 102.12 26.072C102.12 27.5013 102.462 28.6 103.144 29.368C103.848 30.136 104.723 30.52 105.768 30.52Z" fill="#4C86F9"/>
<path d="M34.487 35.256C32.7377 35.256 31.159 34.8827 29.751 34.136C28.3643 33.3893 27.2657 32.3227 26.455 30.936C25.6657 29.5493 25.271 27.928 25.271 26.072C25.271 24.2373 25.6763 22.6267 26.487 21.24C27.2977 19.832 28.407 18.7547 29.815 18.008C31.223 17.2613 32.8017 16.888 34.551 16.888C36.3003 16.888 37.879 17.2613 39.287 18.008C40.695 18.7547 41.8043 19.832 42.615 21.24C43.4257 22.6267 43.831 24.2373 43.831 26.072C43.831 27.9067 43.415 29.528 42.583 30.936C41.7723 32.3227 40.6523 33.3893 39.223 34.136C37.815 34.8827 36.2363 35.256 34.487 35.256ZM34.487 30.52C35.5323 30.52 36.4177 30.136 37.143 29.368C37.8897 28.6 38.263 27.5013 38.263 26.072C38.263 24.6427 37.9003 23.544 37.175 22.776C36.471 22.008 35.5963 21.624 34.551 21.624C33.4843 21.624 32.599 22.008 31.895 22.776C31.191 23.5227 30.839 24.6213 30.839 26.072C30.839 27.5013 31.1803 28.6 31.863 29.368C32.567 30.136 33.4417 30.52 34.487 30.52ZM54.862 35.256C53.1127 35.256 51.534 34.8827 50.126 34.136C48.7393 33.3893 47.6407 32.3227 46.83 30.936C46.0407 29.5493 45.646 27.928 45.646 26.072C45.646 24.2373 46.0513 22.6267 46.862 21.24C47.6727 19.832 48.782 18.7547 50.19 18.008C51.598 17.2613 53.1767 16.888 54.926 16.888C56.6753 16.888 58.254 17.2613 59.662 18.008C61.07 18.7547 62.1793 19.832 62.99 21.24C63.8007 22.6267 64.206 24.2373 64.206 26.072C64.206 27.9067 63.79 29.528 62.958 30.936C62.1473 32.3227 61.0273 33.3893 59.598 34.136C58.19 34.8827 56.6113 35.256 54.862 35.256ZM54.862 30.52C55.9073 30.52 56.7927 30.136 57.518 29.368C58.2647 28.6 58.638 27.5013 58.638 26.072C58.638 24.6427 58.2753 23.544 57.55 22.776C56.846 22.008 55.9713 21.624 54.926 21.624C53.8593 21.624 52.974 22.008 52.27 22.776C51.566 23.5227 51.214 24.6213 51.214 26.072C51.214 27.5013 51.5553 28.6 52.238 29.368C52.942 30.136 53.8167 30.52 54.862 30.52Z" fill="#E1432E"/>
<path d="M80.709 23.48C82.0103 23.7573 83.0557 24.408 83.845 25.432C84.6343 26.4347 85.029 27.5867 85.029 28.888C85.029 30.7653 84.3677 32.2587 83.045 33.368C81.7437 34.456 79.9197 35 77.573 35H67.109V12.536H77.221C79.5037 12.536 81.285 13.0587 82.565 14.104C83.8663 15.1493 84.517 16.568 84.517 18.36C84.517 19.6827 84.165 20.7813 83.461 21.656C82.7783 22.5307 81.861 23.1387 80.709 23.48ZM72.581 21.624H76.165C77.061 21.624 77.7437 21.432 78.213 21.048C78.7037 20.6427 78.949 20.056 78.949 19.288C78.949 18.52 78.7037 17.9333 78.213 17.528C77.7437 17.1227 77.061 16.92 76.165 16.92H72.581V21.624ZM76.613 30.584C77.5303 30.584 78.2343 30.3813 78.725 29.976C79.237 29.5493 79.493 28.9413 79.493 28.152C79.493 27.3627 79.2263 26.744 78.693 26.296C78.181 25.848 77.4663 25.624 76.549 25.624H72.581V30.584H76.613Z" fill="#F6BC00"/>
<path d="M93.6748 11.32V35H88.2028V11.32H93.6748ZM124.799 16.888C126.058 16.888 127.157 17.144 128.095 17.656C129.055 18.168 129.791 18.84 130.303 19.672V17.144H135.775V34.968C135.775 36.6107 135.445 38.0933 134.783 39.416C134.143 40.76 133.151 41.8267 131.807 42.616C130.485 43.4053 128.831 43.8 126.847 43.8C124.202 43.8 122.058 43.1707 120.415 41.912C118.773 40.6747 117.834 38.9893 117.599 36.856H123.007C123.178 37.5387 123.583 38.072 124.223 38.456C124.863 38.8613 125.653 39.064 126.591 39.064C127.722 39.064 128.618 38.7333 129.279 38.072C129.962 37.432 130.303 36.3973 130.303 34.968V32.44C129.77 33.272 129.034 33.9547 128.095 34.488C127.157 35 126.058 35.256 124.799 35.256C123.327 35.256 121.994 34.8827 120.799 34.136C119.605 33.368 118.655 32.2907 117.951 30.904C117.269 29.496 116.927 27.8747 116.927 26.04C116.927 24.2053 117.269 22.5947 117.951 21.208C118.655 19.8213 119.605 18.7547 120.799 18.008C121.994 17.2613 123.327 16.888 124.799 16.888ZM130.303 26.072C130.303 24.7067 129.919 23.6293 129.151 22.84C128.405 22.0507 127.487 21.656 126.399 21.656C125.311 21.656 124.383 22.0507 123.615 22.84C122.869 23.608 122.495 24.6747 122.495 26.04C122.495 27.4053 122.869 28.4933 123.615 29.304C124.383 30.0933 125.311 30.488 126.399 30.488C127.487 30.488 128.405 30.0933 129.151 29.304C129.919 28.5147 130.303 27.4373 130.303 26.072Z" fill="#49A84C"/>
</svg>
