<svg width="195" height="195" viewBox="0 0 195 195" fill="none" xmlns="http://www.w3.org/2000/svg">
<path fill-rule="evenodd" clip-rule="evenodd" d="M97.5 195C151.348 195 195 151.348 195 97.5C195 43.6522 151.348 0 97.5 0C43.6522 0 0 43.6522 0 97.5C0 151.348 43.6522 195 97.5 195ZM97.5 158C130.913 158 158 130.913 158 97.5C158 64.0868 130.913 37 97.5 37C64.0868 37 37 64.0868 37 97.5C37 130.913 64.0868 158 97.5 158Z" fill="#24160C"/>
<path fill-rule="evenodd" clip-rule="evenodd" d="M121 26H75V80H121V26ZM121 115H75V171H121V115Z" fill="#24160C"/>
</svg>
