<svg width="318" height="70" viewBox="0 0 318 70" fill="none" xmlns="http://www.w3.org/2000/svg">
<path d="M26.48 63.48C18.6933 63.48 12.8 61.24 8.8 56.76C4.8 52.28 2.8 46.4933 2.8 39.4C2.8 33.3733 4.13333 27.7733 6.8 22.6C8.34667 19.56 10.2933 16.8933 12.64 14.6C14.9867 12.3067 18.16 10.4133 22.16 8.92C26.16 7.42666 30.6933 6.68 35.76 6.68C37.4667 6.68 38.9867 6.84 40.32 7.16C41.6533 7.48 42.32 7.69333 42.32 7.8C42.32 10.36 42.1333 13.2933 41.76 16.6C41.44 19.8533 41.2533 21.5067 41.2 21.56C40.9333 21.8267 39.8133 22.2533 37.84 22.84C35.92 23.4267 34.48 23.72 33.52 23.72V23.24C33.52 20.84 33.1733 19.16 32.48 18.2C31.7867 17.24 30.5867 16.76 28.88 16.76C25.0933 16.76 21.5733 18.76 18.32 22.76C15.0667 26.7067 13.44 32.1467 13.44 39.08C13.44 42.76 14.3467 46.0667 16.16 49C17.12 50.5467 18.5067 51.8 20.32 52.76C22.1867 53.72 24.3733 54.2 26.88 54.2C31.8933 54.2 36.7733 51.88 41.52 47.24C41.7333 47.24 42.16 47.5867 42.8 48.28C43.4933 48.92 44.16 49.8 44.8 50.92C46.1333 53.0533 46.8 54.36 46.8 54.84C46.8 55.32 45.9733 56.2267 44.32 57.56C42.6667 58.84 40.16 60.1467 36.8 61.48C33.44 62.8133 30 63.48 26.48 63.48ZM75.8888 44.36C75.8888 49.4267 74.3421 53.8267 71.2488 57.56C68.2088 61.24 64.0487 63.08 58.7687 63.08C53.5421 63.08 49.4354 61.4533 46.4487 58.2C43.4621 54.9467 41.9687 50.7333 41.9687 45.56C41.9687 40.3333 43.8087 35.72 47.4887 31.72C51.2221 27.6667 56.2354 25.64 62.5287 25.64C65.0887 25.7467 66.4754 25.9067 66.6887 26.12C66.9021 26.3333 67.0088 26.84 67.0088 27.64C67.0088 28.44 66.9287 29.32 66.7687 30.28C67.5687 30.28 68.5821 30.76 69.8088 31.72C71.0887 32.6267 72.1287 33.56 72.9288 34.52C73.7287 35.48 74.4221 36.84 75.0087 38.6C75.5954 40.3067 75.8888 42.2267 75.8888 44.36ZM64.2088 38.76C62.9821 37.96 61.7821 37.56 60.6087 37.56H59.9688C59.8621 37.3467 59.8088 36.8933 59.8088 36.2C59.8088 35.5067 59.8887 34.84 60.0487 34.2C57.8621 34.2 55.8087 35.1867 53.8887 37.16C52.0221 39.1333 51.0887 41.88 51.0887 45.4C51.0887 49.56 52.4221 52.44 55.0887 54.04C56.1021 54.68 57.4887 55 59.2487 55C61.0621 55 62.7421 54.1733 64.2887 52.52C65.8887 50.8667 66.6887 48.4133 66.6887 45.16C66.6887 41.9067 65.8621 39.7733 64.2088 38.76ZM93.9187 26.68L93.7587 14.84C93.7587 11.5333 93.8387 9.8 93.9987 9.64C94.6387 9 95.6787 8.38666 97.1187 7.8C98.6121 7.16 100.025 6.84 101.359 6.84C102.692 6.84 103.359 6.94666 103.359 7.16C102.932 16.0133 102.719 25.4267 102.719 35.4C102.719 45.3733 102.879 51.32 103.199 53.24C103.572 56.12 104.452 58.2533 105.839 59.64C105.839 60.1733 104.719 61 102.479 62.12C100.292 63.2933 98.4254 63.88 96.8787 63.88C96.7187 63.88 96.4787 63.6667 96.1587 63.24C95.1454 61.9067 94.5321 60.0933 94.3187 57.8C94.3187 57.64 94.2654 57.56 94.1587 57.56L93.9187 57.72C91.6787 60.92 88.3454 62.52 83.9187 62.52C80.3454 62.52 77.5187 61.1067 75.4387 58.28C73.3587 55.4533 72.3187 52.28 72.3187 48.76C72.3187 42.7333 74.1854 37.6133 77.9187 33.4C81.6521 29.1333 86.9854 26.8933 93.9187 26.68ZM94.0787 35.08C94.0787 34.9733 93.7854 34.92 93.1987 34.92H92.8787C89.4654 34.92 86.7721 36.0133 84.7987 38.2C82.8787 40.3867 81.9187 43.16 81.9187 46.52C81.9187 48.4933 82.3721 50.12 83.2787 51.4C84.2387 52.6267 85.6521 53.24 87.5187 53.24C89.4387 53.24 90.9587 52.4133 92.0787 50.76C93.2521 49.1067 93.8387 47.8 93.8387 46.84C93.8387 40.92 93.9187 37 94.0787 35.08ZM122.749 35.56C122.749 34.0133 121.922 33.24 120.269 33.24C118.082 33.24 116.162 34.36 114.509 36.6C112.855 38.84 112.029 41.5333 112.029 44.68C112.029 45.4267 112.135 45.8 112.349 45.8C114.269 45.7467 116.482 44.6533 118.989 42.52C121.495 40.3333 122.749 38.0133 122.749 35.56ZM129.709 61C127.895 62.2267 124.349 62.84 119.069 62.84C113.789 62.84 109.735 61.2667 106.909 58.12C104.082 54.9733 102.669 50.7867 102.669 45.56C102.669 40.28 104.349 35.72 107.709 31.88C111.122 27.9867 115.895 26.04 122.029 26.04C124.535 26.04 126.829 26.7067 128.909 28.04C131.042 29.3733 132.109 31.72 132.109 35.08C132.109 38.3867 130.642 41.6667 127.709 44.92C124.829 48.1733 120.882 50.6533 115.869 52.36C115.869 53 116.509 53.5333 117.789 53.96C119.122 54.3333 120.429 54.52 121.709 54.52C125.762 54.52 128.962 53.8 131.309 52.36C131.362 52.3067 131.442 52.28 131.549 52.28C131.655 52.28 131.709 52.7867 131.709 53.8C131.709 56.8933 131.042 59.2933 129.709 61Z" fill="#232323"/>
<path fill-rule="evenodd" clip-rule="evenodd" d="M318 0H139V70H318V0ZM173.739 57.5C175.595 55.0341 176.496 52.0644 176.443 48.5909C176.417 47.1856 176.045 45.5947 175.33 43.8182C175.038 43.1023 174.653 42.3201 174.176 41.4716C173.169 39.6686 171.737 37.839 169.881 35.983C169.324 35.3996 168.17 34.3788 166.42 32.9205C164.936 31.7008 163.822 30.6402 163.08 29.7386C161.117 27.3788 160.136 25.0587 160.136 22.7784C160.136 21.3201 160.428 20.1004 161.011 19.1193C161.727 17.8996 162.775 17.2898 164.153 17.2898C165.453 17.2898 166.447 17.7008 167.136 18.5227C168.091 19.6629 168.674 21.2538 168.886 23.2955L176.085 21.983C175.9 19.8087 175.343 17.8864 174.415 16.2159C173.513 14.5455 172.32 13.2462 170.835 12.3182C168.926 11.125 166.633 10.5284 163.955 10.5284C161.17 10.5284 158.837 11.2311 156.955 12.6364C153.905 14.9697 152.381 18.4034 152.381 22.9375C152.381 25.4564 152.938 27.7898 154.051 29.9375C155.085 31.8466 156.848 34.0076 159.341 36.4205L166.023 42.7443C167.905 44.786 168.847 46.8409 168.847 48.9091C168.847 50.3409 168.595 51.4413 168.091 52.2102C167.11 53.7746 165.797 54.5833 164.153 54.6364C162.987 54.6894 161.953 54.2254 161.051 53.2443C159.831 51.9451 159.062 49.8504 158.744 46.9602L151.585 47.4773C151.744 50.1288 152.288 52.4886 153.216 54.5568C154.17 56.5985 155.456 58.2159 157.074 59.4091C159.009 60.8674 161.449 61.5966 164.392 61.5966C165.983 61.5966 167.375 61.411 168.568 61.0398C170.795 60.3504 172.519 59.1705 173.739 57.5ZM184.969 18.6818H192.963V61H200.48V18.6818H208.435V11.1648H184.969V18.6818ZM221.265 58.0966C223.572 60.4034 226.383 61.5568 229.697 61.5568C232.985 61.5568 235.796 60.4167 238.129 58.1364C240.462 55.8561 241.629 53.0455 241.629 49.7045V11.1648H233.794V49.625C233.794 50.8182 233.37 51.839 232.521 52.6875C231.699 53.5095 230.692 53.9205 229.498 53.9205C228.305 53.9205 227.284 53.5095 226.436 52.6875C225.587 51.839 225.163 50.8182 225.163 49.625V11.1648H217.805V49.7045C217.805 52.9924 218.959 55.7898 221.265 58.0966ZM251.681 61H259.198V39.8409H269.34V32.2841H259.198V18.642H273.079V11.125H251.681V61ZM281.619 61H289.136V39.8409H299.278V32.2841H289.136V18.642H303.017V11.125H281.619V61Z" fill="#232323"/>
</svg>
