<svg width="16" height="16" viewBox="0 0 16 16" fill="none" xmlns="http://www.w3.org/2000/svg">
<rect width="16" height="16" rx="8" fill="#4C86F9"/>
<path d="M9.28 7.2C9.15333 6.96667 8.97 6.79 8.73 6.67C8.49667 6.54333 8.22 6.48 7.9 6.48C7.34667 6.48 6.90333 6.66333 6.57 7.03C6.23667 7.39 6.07 7.87333 6.07 8.48C6.07 9.12667 6.24333 9.63333 6.59 10C6.94333 10.36 7.42667 10.54 8.04 10.54C8.46 10.54 8.81333 10.4333 9.1 10.22C9.39333 10.0067 9.60667 9.7 9.74 9.3H7.57V8.04H11.29V9.63C11.1633 10.0567 10.9467 10.4533 10.64 10.82C10.34 11.1867 9.95667 11.4833 9.49 11.71C9.02333 11.9367 8.49667 12.05 7.91 12.05C7.21667 12.05 6.59667 11.9 6.05 11.6C5.51 11.2933 5.08667 10.87 4.78 10.33C4.48 9.79 4.33 9.17333 4.33 8.48C4.33 7.78667 4.48 7.17 4.78 6.63C5.08667 6.08333 5.51 5.66 6.05 5.36C6.59 5.05333 7.20667 4.9 7.9 4.9C8.74 4.9 9.44667 5.10333 10.02 5.51C10.6 5.91667 10.9833 6.48 11.17 7.2H9.28Z" fill="black"/>
<circle cx="11.7333" cy="3.73335" r="0.533333" fill="white"/>
</svg>
