<svg width="392" height="89" viewBox="0 0 392 89" fill="none" xmlns="http://www.w3.org/2000/svg">
<rect x="213" y="12" width="179" height="70" fill="currentColor"/>
<path d="M9.76 74.64L7.28 74.4C7.17333 73.8667 7.12 70.24 7.12 63.52C7.12 56.7467 7.14667 52 7.2 49.28C6.29333 48.4267 5.38667 47.12 4.48 45.36C3.62667 43.5467 3.2 42 3.2 40.72C3.2 40.6667 4.58667 40.5867 7.36 40.48C7.41333 38.24 7.44 35.6533 7.44 32.72C7.44 29.7867 7.41333 28.2933 7.36 28.24C6.77333 27.6533 6 26.2667 5.04 24.08C4.13333 21.84 3.68 20.4 3.68 19.76C4.26667 19.1733 13.52 18.88 31.44 18.88C35.92 18.88 38.16 18.9867 38.16 19.2C38.16 20.32 37.8933 21.5467 37.36 22.88C36.88 24.2133 36.3467 25.28 35.76 26.08C35.2267 26.8267 34.88 27.1733 34.72 27.12C34.56 27.0667 33.6 27.04 31.84 27.04C30.08 27.04 27.36 27.1733 23.68 27.44C20 27.6533 18 27.92 17.68 28.24C17.36 28.5067 17.2 31.3867 17.2 36.88L17.28 40.24C22.2933 40.1333 26.1333 40.08 28.8 40.08C31.4667 40.08 32.8 40.16 32.8 40.32C32.8 42.4 32.16 44.5867 30.88 46.88C30.4533 47.68 30.1867 48.08 30.08 48.08H29.28C27.5733 48.08 25.2 48.2133 22.16 48.48C19.12 48.7467 17.52 48.96 17.36 49.12C17.2 49.28 17.12 52.6133 17.12 59.12C17.12 65.6267 17.4667 70.0533 18.16 72.4C18.16 73.0933 17.12 73.6267 15.04 74C13.0133 74.4267 11.2533 74.64 9.76 74.64ZM34.2909 62.28L34.1469 45.936C34.1469 43.104 34.2429 41.592 34.4349 41.4C34.9629 40.872 35.8749 40.416 37.1709 40.032C38.4669 39.6 39.6669 39.384 40.7709 39.384C41.9229 39.384 42.4989 39.504 42.4989 39.744C42.3549 41.04 42.2829 42.528 42.2829 44.208C42.2829 45.84 42.3309 46.656 42.4269 46.656C42.5229 46.656 42.6189 46.608 42.7149 46.512C42.8109 46.368 42.9549 46.176 43.1469 45.936C43.3869 45.648 43.8429 45.168 44.5149 44.496C45.2349 43.824 46.0029 43.248 46.8189 42.768C48.8829 41.424 51.0909 40.752 53.4429 40.752C53.8269 41.376 54.0189 42.336 54.0189 43.632C54.0189 46.368 53.6829 48.312 53.0109 49.464L52.7229 50.04L51.7869 49.896C48.3309 49.896 45.6189 51.312 43.6509 54.144C42.8829 55.296 42.4989 56.16 42.4989 56.736V63.072C42.4989 68.832 42.4269 71.784 42.2829 71.928C40.9389 73.224 38.2989 73.872 34.3629 73.872C33.9789 73.872 33.7869 73.8 33.7869 73.656C34.1229 71.784 34.2909 67.992 34.2909 62.28ZM79.1593 57.024C79.1593 61.584 77.7673 65.544 74.9833 68.904C72.2473 72.216 68.5032 73.872 63.7512 73.872C59.0472 73.872 55.3512 72.408 52.6632 69.48C49.9752 66.552 48.6312 62.76 48.6312 58.104C48.6312 53.4 50.2872 49.248 53.5992 45.648C56.9592 42 61.4712 40.176 67.1352 40.176C69.4392 40.272 70.6872 40.416 70.8792 40.608C71.0713 40.8 71.1673 41.256 71.1673 41.976C71.1673 42.696 71.0952 43.488 70.9512 44.352C71.6712 44.352 72.5833 44.784 73.6873 45.648C74.8392 46.464 75.7752 47.304 76.4953 48.168C77.2152 49.032 77.8392 50.256 78.3672 51.84C78.8953 53.376 79.1593 55.104 79.1593 57.024ZM68.6473 51.984C67.5433 51.264 66.4633 50.904 65.4072 50.904H64.8313C64.7353 50.712 64.6873 50.304 64.6873 49.68C64.6873 49.056 64.7592 48.456 64.9032 47.88C62.9352 47.88 61.0872 48.768 59.3592 50.544C57.6792 52.32 56.8392 54.792 56.8392 57.96C56.8392 61.704 58.0392 64.296 60.4392 65.736C61.3512 66.312 62.5992 66.6 64.1832 66.6C65.8152 66.6 67.3272 65.856 68.7192 64.368C70.1592 62.88 70.8792 60.672 70.8792 57.744C70.8792 54.816 70.1353 52.896 68.6473 51.984ZM89.3383 55.8L89.4103 58.464V63.936C89.4103 69.072 89.3143 71.736 89.1223 71.928C88.4983 72.552 87.4183 73.032 85.8823 73.368C84.3463 73.704 83.0743 73.872 82.0663 73.872C81.1063 73.872 80.6263 73.8 80.6263 73.656C80.9623 71.496 81.1303 67.944 81.1303 63L80.9143 46.8C80.9143 43.824 81.0343 42.216 81.2743 41.976C81.8023 41.448 82.7143 40.992 84.0103 40.608C85.3063 40.176 86.5063 39.96 87.6103 39.96C88.7623 39.96 89.3383 40.08 89.3383 40.32C89.1943 41.472 89.1223 42.624 89.1223 43.776C89.1223 44.928 89.1943 45.504 89.3383 45.504L89.5543 45.36C89.7943 45.024 90.1543 44.616 90.6343 44.136C91.1143 43.608 92.1223 42.936 93.6583 42.12C95.2423 41.256 96.7303 40.824 98.1223 40.824C99.5623 40.824 100.762 41.088 101.722 41.616C102.73 42.096 103.546 42.696 104.17 43.416C104.794 44.136 105.322 45.168 105.754 46.512C106.234 47.856 106.594 49.104 106.834 50.256C107.074 51.408 107.266 52.944 107.41 54.864C107.554 57.504 107.626 60.864 107.626 64.944L107.41 73.368C107.41 73.704 106.618 74.016 105.034 74.304C103.45 74.64 102.178 74.808 101.218 74.808L98.8423 74.448C99.3223 70.128 99.5623 65.952 99.5623 61.92C99.5623 57.84 99.2983 54.792 98.7703 52.776C98.2423 50.712 97.1863 49.68 95.6023 49.68C94.0183 49.68 92.7223 50.112 91.7143 50.976C90.7543 51.84 90.1303 52.704 89.8423 53.568L89.3383 54.792V55.8ZM118.919 24.84C118.823 25.944 118.703 28.968 118.559 33.912C122.159 33.912 123.959 33.984 123.959 34.128C123.959 35.76 123.719 37.224 123.239 38.52C122.759 39.768 122.303 40.392 121.871 40.392H118.487C118.391 47.496 118.343 53.28 118.343 57.744C118.343 62.16 118.415 65.112 118.559 66.6C118.847 69.096 119.831 71.136 121.511 72.72C121.511 73.248 120.575 74.016 118.703 75.024C116.879 76.032 115.151 76.536 113.519 76.536C113.375 76.536 113.087 76.296 112.655 75.816C112.271 75.336 111.839 74.544 111.359 73.44C110.927 72.336 110.639 71.256 110.495 70.2C110.399 69.144 110.351 65.376 110.351 58.896C110.351 52.416 110.423 46.296 110.567 40.536L106.535 40.608C106.295 40.368 106.175 39.336 106.175 37.512C106.175 35.64 106.391 34.512 106.823 34.128C107.879 34.08 109.151 34.032 110.639 33.984C110.639 31.2 110.567 29.4 110.423 28.584C110.279 27.768 110.207 27.288 110.207 27.144C110.207 26.664 111.023 26.112 112.655 25.488C114.335 24.864 115.799 24.552 117.047 24.552C118.295 24.552 118.919 24.648 118.919 24.84ZM138.821 49.104C138.821 47.712 138.077 47.016 136.589 47.016C134.621 47.016 132.893 48.024 131.405 50.04C129.917 52.056 129.173 54.48 129.173 57.312C129.173 57.984 129.269 58.32 129.461 58.32C131.189 58.272 133.181 57.288 135.437 55.368C137.693 53.4 138.821 51.312 138.821 49.104ZM145.085 72C143.453 73.104 140.261 73.656 135.509 73.656C130.757 73.656 127.109 72.24 124.565 69.408C122.021 66.576 120.749 62.808 120.749 58.104C120.749 53.352 122.261 49.248 125.285 45.792C128.357 42.288 132.653 40.536 138.173 40.536C140.429 40.536 142.493 41.136 144.365 42.336C146.285 43.536 147.245 45.648 147.245 48.672C147.245 51.648 145.925 54.6 143.285 57.528C140.693 60.456 137.141 62.688 132.629 64.224C132.629 64.8 133.205 65.28 134.357 65.664C135.557 66 136.733 66.168 137.885 66.168C141.533 66.168 144.413 65.52 146.525 64.224C146.573 64.176 146.645 64.152 146.741 64.152C146.837 64.152 146.885 64.608 146.885 65.52C146.885 68.304 146.285 70.464 145.085 72ZM157.027 55.8L157.099 58.464V63.936C157.099 69.072 157.003 71.736 156.811 71.928C156.187 72.552 155.107 73.032 153.571 73.368C152.035 73.704 150.763 73.872 149.755 73.872C148.795 73.872 148.315 73.8 148.315 73.656C148.651 71.496 148.819 67.944 148.819 63L148.603 46.8C148.603 43.824 148.723 42.216 148.963 41.976C149.491 41.448 150.403 40.992 151.699 40.608C152.995 40.176 154.195 39.96 155.299 39.96C156.451 39.96 157.027 40.08 157.027 40.32C156.883 41.472 156.811 42.624 156.811 43.776C156.811 44.928 156.883 45.504 157.027 45.504L157.243 45.36C157.483 45.024 157.843 44.616 158.323 44.136C158.803 43.608 159.811 42.936 161.347 42.12C162.931 41.256 164.419 40.824 165.811 40.824C167.251 40.824 168.451 41.088 169.411 41.616C170.419 42.096 171.235 42.696 171.859 43.416C172.483 44.136 173.011 45.168 173.443 46.512C173.923 47.856 174.283 49.104 174.523 50.256C174.763 51.408 174.955 52.944 175.099 54.864C175.243 57.504 175.315 60.864 175.315 64.944L175.099 73.368C175.099 73.704 174.307 74.016 172.723 74.304C171.139 74.64 169.867 74.808 168.907 74.808L166.531 74.448C167.011 70.128 167.251 65.952 167.251 61.92C167.251 57.84 166.987 54.792 166.459 52.776C165.931 50.712 164.875 49.68 163.291 49.68C161.707 49.68 160.411 50.112 159.403 50.976C158.443 51.84 157.819 52.704 157.531 53.568L157.027 54.792V55.8ZM195.463 41.112L195.319 30.456C195.319 27.48 195.391 25.92 195.535 25.776C196.111 25.2 197.047 24.648 198.343 24.12C199.687 23.544 200.959 23.256 202.159 23.256C203.359 23.256 203.959 23.352 203.959 23.544C203.575 31.512 203.383 39.984 203.383 48.96C203.383 57.936 203.527 63.288 203.815 65.016C204.151 67.608 204.943 69.528 206.191 70.776C206.191 71.256 205.183 72 203.167 73.008C201.199 74.064 199.519 74.592 198.127 74.592C197.983 74.592 197.767 74.4 197.479 74.016C196.567 72.816 196.015 71.184 195.823 69.12C195.823 68.976 195.775 68.904 195.679 68.904L195.463 69.048C193.447 71.928 190.447 73.368 186.463 73.368C183.247 73.368 180.703 72.096 178.831 69.552C176.959 67.008 176.023 64.152 176.023 60.984C176.023 55.56 177.703 50.952 181.063 47.16C184.423 43.32 189.223 41.304 195.463 41.112ZM195.607 48.672C195.607 48.576 195.343 48.528 194.815 48.528H194.527C191.455 48.528 189.031 49.512 187.255 51.48C185.527 53.448 184.663 55.944 184.663 58.968C184.663 60.744 185.071 62.208 185.887 63.36C186.751 64.464 188.023 65.016 189.703 65.016C191.431 65.016 192.799 64.272 193.807 62.784C194.863 61.296 195.391 60.12 195.391 59.256C195.391 53.928 195.463 50.4 195.607 48.672Z" fill="currentColor"/>
<path d="M250.443 60.5909C250.496 64.0644 249.595 67.0341 247.739 69.5C246.519 71.1705 244.795 72.3504 242.568 73.0398C241.375 73.411 239.983 73.5966 238.392 73.5966C235.449 73.5966 233.009 72.8674 231.074 71.4091C229.456 70.2159 228.17 68.5985 227.216 66.5568C226.288 64.4886 225.744 62.1288 225.585 59.4773L232.744 58.9602C233.063 61.8504 233.831 63.9451 235.051 65.2443C235.953 66.2254 236.987 66.6894 238.153 66.6364C239.797 66.5833 241.11 65.7746 242.091 64.2102C242.595 63.4413 242.847 62.3409 242.847 60.9091C242.847 58.8409 241.905 56.786 240.023 54.7443C238.538 53.339 236.311 51.2311 233.341 48.4205C230.848 46.0076 229.085 43.8466 228.051 41.9375C226.938 39.7898 226.381 37.4564 226.381 34.9375C226.381 30.4034 227.905 26.9697 230.955 24.6364C232.837 23.2311 235.17 22.5284 237.955 22.5284C240.633 22.5284 242.926 23.125 244.835 24.3182C246.32 25.2462 247.513 26.5455 248.415 28.2159C249.343 29.8864 249.9 31.8087 250.085 33.983L242.886 35.2955C242.674 33.2538 242.091 31.6629 241.136 30.5227C240.447 29.7008 239.453 29.2898 238.153 29.2898C236.775 29.2898 235.727 29.8996 235.011 31.1193C234.428 32.1004 234.136 33.3201 234.136 34.7784C234.136 37.0587 235.117 39.3788 237.08 41.7386C237.822 42.6402 238.936 43.7008 240.42 44.9205C242.17 46.3788 243.324 47.3996 243.881 47.983C245.737 49.839 247.169 51.6686 248.176 53.4716C248.653 54.3201 249.038 55.1023 249.33 55.8182C250.045 57.5947 250.417 59.1856 250.443 60.5909ZM266.963 30.6818H258.969V23.1648H282.435V30.6818H274.48V73H266.963V30.6818ZM303.697 73.5568C300.383 73.5568 297.572 72.4034 295.265 70.0966C292.959 67.7898 291.805 64.9924 291.805 61.7045V23.1648H299.163V61.625C299.163 62.8182 299.587 63.839 300.436 64.6875C301.284 65.5095 302.305 65.9205 303.498 65.9205C304.692 65.9205 305.699 65.5095 306.521 64.6875C307.37 63.839 307.794 62.8182 307.794 61.625V23.1648H315.629V61.7045C315.629 65.0455 314.462 67.8561 312.129 70.1364C309.796 72.4167 306.985 73.5568 303.697 73.5568ZM333.198 73H325.681V23.125H347.079V30.642H333.198V44.2841H343.34V51.8409H333.198V73ZM363.136 73H355.619V23.125H377.017V30.642H363.136V44.2841H373.278V51.8409H363.136V73Z" fill="white"/>
</svg>
