<svg width="18" height="18" viewBox="0 0 18 18" fill="none" xmlns="http://www.w3.org/2000/svg">
<path d="M17.54 2.23006C17.83 2.57006 18 3.00006 18 3.50006V16.0001C18 16.5305 17.7893 17.0392 17.4142 17.4143C17.0391 17.7893 16.5304 18.0001 16 18.0001H2C1.46957 18.0001 0.960859 17.7893 0.585786 17.4143C0.210714 17.0392 0 16.5305 0 16.0001V3.50006C0 3.00006 0.17 2.57006 0.46 2.23006L1.84 0.550061C2.12 0.210061 2.53 6.10352e-05 3 6.10352e-05H15C15.47 6.10352e-05 15.88 0.210061 16.15 0.550061L17.54 2.23006ZM2.12 2.00006H15.87L14.93 1.00006H2.93L2.12 2.00006ZM9 6.50006L3.5 12.0001H7V14.0001H11V12.0001H14.5L9 6.50006Z" fill="#262626"/>
</svg>
