<svg width="21" height="21" viewBox="0 0 21 21" fill="none" xmlns="http://www.w3.org/2000/svg">
<path d="M7.5 20.5C7.23478 20.5 6.98043 20.3946 6.79289 20.2071C6.60536 20.0196 6.5 19.7652 6.5 19.5V16.5H2.5C1.96957 16.5 1.46086 16.2893 1.08579 15.9142C0.710714 15.5391 0.5 15.0304 0.5 14.5V2.5C0.5 1.96957 0.710714 1.46086 1.08579 1.08579C1.46086 0.710714 1.96957 0.5 2.5 0.5H18.5C19.0304 0.5 19.5391 0.710714 19.9142 1.08579C20.2893 1.46086 20.5 1.96957 20.5 2.5V14.5C20.5 15.0304 20.2893 15.5391 19.9142 15.9142C19.5391 16.2893 19.0304 16.5 18.5 16.5H12.4L8.7 20.21C8.5 20.4 8.25 20.5 8 20.5H7.5ZM8.5 14.5V17.58L11.58 14.5H18.5V2.5H2.5V14.5H8.5ZM15.5 9.5H13.5V7.5H15.5V9.5ZM11.5 9.5H9.5V7.5H11.5V9.5ZM7.5 9.5H5.5V7.5H7.5V9.5Z" fill="black"/>
</svg>
