<svg width="150" height="54" viewBox="0 0 150 54" fill="none" xmlns="http://www.w3.org/2000/svg">
<rect width="150" height="54" rx="5" fill="#EEEEEE"/>
<path d="M29 36H18V22H29V36ZM29 20H18C17.4696 20 16.9609 20.2107 16.5858 20.5858C16.2107 20.9609 16 21.4696 16 22V36C16 36.5304 16.2107 37.0391 16.5858 37.4142C16.9609 37.7893 17.4696 38 18 38H29C29.5304 38 30.0391 37.7893 30.4142 37.4142C30.7893 37.0391 31 36.5304 31 36V22C31 21.4696 30.7893 20.9609 30.4142 20.5858C30.0391 20.2107 29.5304 20 29 20ZM26 16H14C13.4696 16 12.9609 16.2107 12.5858 16.5858C12.2107 16.9609 12 17.4696 12 18V32H14V18H26V16Z" fill="#262626"/>
<path d="M58.679 24.1847H56.4631C56.3778 23.7112 56.2192 23.2945 55.9872 22.9347C55.7552 22.5748 55.4711 22.2694 55.1349 22.0185C54.7988 21.7675 54.4223 21.5781 54.0057 21.4503C53.5938 21.3224 53.1558 21.2585 52.6918 21.2585C51.8537 21.2585 51.1032 21.4692 50.4403 21.8906C49.7822 22.312 49.2614 22.9299 48.8778 23.7443C48.4991 24.5587 48.3097 25.553 48.3097 26.7273C48.3097 27.911 48.4991 28.91 48.8778 29.7244C49.2614 30.5388 49.7846 31.1544 50.4474 31.571C51.1103 31.9877 51.8561 32.196 52.6847 32.196C53.1439 32.196 53.5795 32.1345 53.9915 32.0114C54.4081 31.8835 54.7846 31.6965 55.1207 31.4503C55.4569 31.2041 55.741 30.9034 55.973 30.5483C56.2098 30.1884 56.3731 29.7765 56.4631 29.3125L58.679 29.3196C58.5606 30.0346 58.331 30.6927 57.9901 31.294C57.6539 31.8906 57.2206 32.4067 56.6903 32.8423C56.1648 33.2732 55.5634 33.607 54.8864 33.8438C54.2093 34.0805 53.4706 34.1989 52.6705 34.1989C51.411 34.1989 50.2888 33.9006 49.304 33.304C48.3191 32.7027 47.5426 31.8433 46.9744 30.7259C46.411 29.6084 46.1293 28.2756 46.1293 26.7273C46.1293 25.1742 46.4134 23.8414 46.9815 22.7287C47.5497 21.6113 48.3262 20.7543 49.3111 20.1577C50.2959 19.5563 51.4157 19.2557 52.6705 19.2557C53.4422 19.2557 54.1619 19.367 54.8295 19.5895C55.5019 19.8073 56.1056 20.1293 56.6406 20.5554C57.1757 20.9768 57.6184 21.4929 57.9688 22.1037C58.3191 22.7098 58.5559 23.4034 58.679 24.1847ZM65.7298 34.2202C64.707 34.2202 63.8145 33.9858 63.0522 33.517C62.2899 33.0483 61.698 32.3925 61.2766 31.5497C60.8552 30.7069 60.6445 29.7221 60.6445 28.5952C60.6445 27.4635 60.8552 26.474 61.2766 25.6264C61.698 24.7789 62.2899 24.1207 63.0522 23.652C63.8145 23.1832 64.707 22.9489 65.7298 22.9489C66.7525 22.9489 67.645 23.1832 68.4073 23.652C69.1696 24.1207 69.7615 24.7789 70.1829 25.6264C70.6043 26.474 70.815 27.4635 70.815 28.5952C70.815 29.7221 70.6043 30.7069 70.1829 31.5497C69.7615 32.3925 69.1696 33.0483 68.4073 33.517C67.645 33.9858 66.7525 34.2202 65.7298 34.2202ZM65.7369 32.4375C66.3997 32.4375 66.949 32.2623 67.3846 31.9119C67.8202 31.5616 68.1422 31.0952 68.3505 30.5128C68.5636 29.9304 68.6701 29.2888 68.6701 28.5881C68.6701 27.892 68.5636 27.2528 68.3505 26.6705C68.1422 26.0833 67.8202 25.6122 67.3846 25.2571C66.949 24.902 66.3997 24.7244 65.7369 24.7244C65.0692 24.7244 64.5153 24.902 64.0749 25.2571C63.6393 25.6122 63.315 26.0833 63.1019 26.6705C62.8936 27.2528 62.7894 27.892 62.7894 28.5881C62.7894 29.2888 62.8936 29.9304 63.1019 30.5128C63.315 31.0952 63.6393 31.5616 64.0749 31.9119C64.5153 32.2623 65.0692 32.4375 65.7369 32.4375ZM73.1854 38.0909V23.0909H75.2592V24.8594H75.4368C75.5599 24.6321 75.7375 24.3693 75.9695 24.071C76.2015 23.7727 76.5234 23.5123 76.9354 23.2898C77.3473 23.0625 77.8918 22.9489 78.5689 22.9489C79.4496 22.9489 80.2356 23.1714 80.9268 23.6165C81.6181 24.0616 82.1603 24.7031 82.5533 25.5412C82.951 26.3793 83.1499 27.3878 83.1499 28.5668C83.1499 29.7457 82.9534 30.7566 82.5604 31.5994C82.1674 32.4375 81.6276 33.0838 80.9411 33.5384C80.2545 33.9882 79.4709 34.2131 78.5902 34.2131C77.9273 34.2131 77.3852 34.1018 76.9638 33.8793C76.5471 33.6567 76.2204 33.3963 75.9837 33.098C75.7469 32.7997 75.5646 32.5346 75.4368 32.3026H75.3089V38.0909H73.1854ZM75.2663 28.5455C75.2663 29.3125 75.3776 29.9848 75.6001 30.5625C75.8227 31.1402 76.1446 31.5923 76.5661 31.919C76.9875 32.241 77.5036 32.402 78.1143 32.402C78.7488 32.402 79.2791 32.2339 79.7053 31.8977C80.1314 31.5568 80.4534 31.0952 80.6712 30.5128C80.8937 29.9304 81.005 29.2746 81.005 28.5455C81.005 27.8258 80.8961 27.1795 80.6783 26.6065C80.4652 26.0336 80.1432 25.5814 79.7124 25.25C79.2862 24.9186 78.7536 24.7528 78.1143 24.7528C77.4988 24.7528 76.978 24.9115 76.5518 25.2287C76.1304 25.5459 75.8108 25.9886 75.593 26.5568C75.3752 27.125 75.2663 27.7879 75.2663 28.5455ZM86.5004 38.0909C86.1831 38.0909 85.8943 38.0649 85.6339 38.0128C85.3735 37.9654 85.1793 37.9134 85.0515 37.8565L85.5629 36.1165C85.9511 36.2206 86.2968 36.2656 86.5998 36.2514C86.9028 36.2372 87.1703 36.1236 87.4023 35.9105C87.6391 35.6974 87.8474 35.3494 88.0273 34.8665L88.2901 34.142L84.2987 23.0909H86.5714L89.3342 31.5568H89.4478L92.2106 23.0909H94.4904L89.9947 35.456C89.7863 36.0241 89.5212 36.5047 89.1992 36.8977C88.8772 37.2955 88.4937 37.5938 88.0487 37.7926C87.6036 37.9915 87.0875 38.0909 86.5004 38.0909ZM111.303 19.4545H113.505V29.0213C113.505 30.0393 113.266 30.9413 112.788 31.7273C112.309 32.5085 111.637 33.1241 110.771 33.5739C109.904 34.0189 108.888 34.2415 107.724 34.2415C106.564 34.2415 105.55 34.0189 104.684 33.5739C103.817 33.1241 103.145 32.5085 102.667 31.7273C102.189 30.9413 101.95 30.0393 101.95 29.0213V19.4545H104.144V28.8438C104.144 29.5019 104.289 30.0866 104.577 30.598C104.871 31.1094 105.285 31.5118 105.82 31.8054C106.355 32.0942 106.99 32.2386 107.724 32.2386C108.462 32.2386 109.099 32.0942 109.634 31.8054C110.174 31.5118 110.586 31.1094 110.87 30.598C111.159 30.0866 111.303 29.5019 111.303 28.8438V19.4545ZM116.696 34V19.4545H121.88C123.007 19.4545 123.942 19.6487 124.686 20.0369C125.434 20.4252 125.993 20.9626 126.362 21.6491C126.731 22.331 126.916 23.1193 126.916 24.0142C126.916 24.9044 126.729 25.688 126.355 26.3651C125.985 27.0374 125.427 27.5606 124.679 27.9347C123.935 28.3087 123 28.4957 121.873 28.4957H117.946V26.6065H121.674C122.385 26.6065 122.962 26.5047 123.407 26.3011C123.857 26.0975 124.186 25.8016 124.395 25.4134C124.603 25.0251 124.707 24.5587 124.707 24.0142C124.707 23.465 124.6 22.9891 124.387 22.5866C124.179 22.1842 123.85 21.8764 123.4 21.6634C122.955 21.4455 122.37 21.3366 121.646 21.3366H118.89V34H116.696ZM123.876 27.4375L127.47 34H124.97L121.447 27.4375H123.876ZM129.586 34V19.4545H131.781V32.1108H138.372V34H129.586Z" fill="#474747"/>
</svg>
