<svg width="14" height="14" viewBox="0 0 14 14" fill="none" xmlns="http://www.w3.org/2000/svg">
<path d="M3.88886 7.77778C3.68258 7.77778 3.48475 7.69584 3.33889 7.54998C3.19303 7.40412 3.11108 7.20629 3.11108 7.00001C3.11108 6.79373 3.19303 6.5959 3.33889 6.45004C3.48475 6.30417 3.68258 6.22223 3.88886 6.22223C4.09514 6.22223 4.29297 6.30417 4.43883 6.45004C4.5847 6.5959 4.66664 6.79373 4.66664 7.00001C4.66664 7.20629 4.5847 7.40412 4.43883 7.54998C4.29297 7.69584 4.09514 7.77778 3.88886 7.77778V7.77778Z" fill="black" fill-opacity="0.6"/>
<path d="M3.88886 10.8889C3.68258 10.8889 3.48475 10.8069 3.33889 10.6611C3.19303 10.5152 3.11108 10.3174 3.11108 10.1111C3.11108 9.90483 3.19303 9.707 3.33889 9.56113C3.48475 9.41527 3.68258 9.33333 3.88886 9.33333C4.09514 9.33333 4.29297 9.41527 4.43883 9.56113C4.5847 9.707 4.66664 9.90483 4.66664 10.1111C4.66664 10.3174 4.5847 10.5152 4.43883 10.6611C4.29297 10.8069 4.09514 10.8889 3.88886 10.8889V10.8889Z" fill="black" fill-opacity="0.6"/>
<path d="M6.22217 10.1111C6.22217 10.3174 6.30411 10.5152 6.44997 10.6611C6.59584 10.8069 6.79367 10.8889 6.99995 10.8889C7.20623 10.8889 7.40406 10.8069 7.54992 10.6611C7.69578 10.5152 7.77772 10.3174 7.77772 10.1111C7.77772 9.90483 7.69578 9.707 7.54992 9.56113C7.40406 9.41527 7.20623 9.33333 6.99995 9.33333C6.79367 9.33333 6.59584 9.41527 6.44997 9.56113C6.30411 9.707 6.22217 9.90483 6.22217 10.1111Z" fill="black" fill-opacity="0.6"/>
<path d="M10.1112 10.8889C9.90487 10.8889 9.70704 10.8069 9.56118 10.6611C9.41532 10.5152 9.33337 10.3174 9.33337 10.1111C9.33337 9.90483 9.41532 9.707 9.56118 9.56113C9.70704 9.41527 9.90487 9.33333 10.1112 9.33333C10.3174 9.33333 10.5153 9.41527 10.6611 9.56113C10.807 9.707 10.8889 9.90483 10.8889 10.1111C10.8889 10.3174 10.807 10.5152 10.6611 10.6611C10.5153 10.8069 10.3174 10.8889 10.1112 10.8889Z" fill="black" fill-opacity="0.6"/>
<path d="M6.22217 7.00001C6.22217 7.20629 6.30411 7.40412 6.44997 7.54998C6.59584 7.69584 6.79367 7.77778 6.99995 7.77778C7.20623 7.77778 7.40406 7.69584 7.54992 7.54998C7.69578 7.40412 7.77772 7.20629 7.77772 7.00001C7.77772 6.79373 7.69578 6.5959 7.54992 6.45004C7.40406 6.30417 7.20623 6.22223 6.99995 6.22223C6.79367 6.22223 6.59584 6.30417 6.44997 6.45004C6.30411 6.5959 6.22217 6.79373 6.22217 7.00001Z" fill="black" fill-opacity="0.6"/>
<path d="M10.1112 7.77778C9.90487 7.77778 9.70704 7.69584 9.56118 7.54998C9.41532 7.40412 9.33337 7.20629 9.33337 7.00001C9.33337 6.79373 9.41532 6.5959 9.56118 6.45004C9.70704 6.30417 9.90487 6.22223 10.1112 6.22223C10.3174 6.22223 10.5153 6.30417 10.6611 6.45004C10.807 6.5959 10.8889 6.79373 10.8889 7.00001C10.8889 7.20629 10.807 7.40412 10.6611 7.54998C10.5153 7.69584 10.3174 7.77778 10.1112 7.77778Z" fill="black" fill-opacity="0.6"/>
<path d="M3.88886 3.11111C3.68258 3.11111 3.48475 3.19306 3.33889 3.33892C3.19303 3.48478 3.11108 3.68261 3.11108 3.88889C3.11108 4.09517 3.19303 4.293 3.33889 4.43886C3.48475 4.58473 3.68258 4.66667 3.88886 4.66667H10.1111C10.3174 4.66667 10.5152 4.58473 10.6611 4.43886C10.8069 4.293 10.8889 4.09517 10.8889 3.88889C10.8889 3.68261 10.8069 3.48478 10.6611 3.33892C10.5152 3.19306 10.3174 3.11111 10.1111 3.11111H3.88886Z" fill="black" fill-opacity="0.6"/>
<path fill-rule="evenodd" clip-rule="evenodd" d="M2.33333 0C1.71449 0 1.121 0.245833 0.683418 0.683418C0.245833 1.121 0 1.71449 0 2.33333V11.6667C0 12.2855 0.245833 12.879 0.683418 13.3166C1.121 13.7542 1.71449 14 2.33333 14H11.6667C12.2855 14 12.879 13.7542 13.3166 13.3166C13.7542 12.879 14 12.2855 14 11.6667V2.33333C14 1.71449 13.7542 1.121 13.3166 0.683418C12.879 0.245833 12.2855 0 11.6667 0H2.33333ZM11.6667 1.55556H2.33333C2.12705 1.55556 1.92922 1.6375 1.78336 1.78336C1.6375 1.92922 1.55556 2.12705 1.55556 2.33333V11.6667C1.55556 11.8729 1.6375 12.0708 1.78336 12.2166C1.92922 12.3625 2.12705 12.4444 2.33333 12.4444H11.6667C11.8729 12.4444 12.0708 12.3625 12.2166 12.2166C12.3625 12.0708 12.4444 11.8729 12.4444 11.6667V2.33333C12.4444 2.12705 12.3625 1.92922 12.2166 1.78336C12.0708 1.6375 11.8729 1.55556 11.6667 1.55556Z" fill="black" fill-opacity="0.6"/>
</svg>
