<svg width="24" height="24" viewBox="0 0 24 24" fill="none" xmlns="http://www.w3.org/2000/svg">
<path d="M15.172 7L8.58602 13.586C8.395 13.7705 8.24264 13.9912 8.13782 14.2352C8.033 14.4792 7.97783 14.7416 7.97552 15.0072C7.97321 15.2728 8.02381 15.5361 8.12438 15.7819C8.22494 16.0277 8.37344 16.251 8.56123 16.4388C8.74902 16.6266 8.97232 16.7751 9.21811 16.8756C9.4639 16.9762 9.72726 17.0268 9.99282 17.0245C10.2584 17.0222 10.5208 16.967 10.7648 16.8622C11.0088 16.7574 11.2295 16.605 11.414 16.414L17.828 9.828C18.5567 9.07359 18.9598 8.06318 18.9507 7.01439C18.9416 5.96561 18.5209 4.96236 17.7793 4.22073C17.0377 3.47909 16.0344 3.05842 14.9856 3.0493C13.9368 3.04019 12.9264 3.44337 12.172 4.172L5.75702 10.757C4.63171 11.8823 3.99951 13.4086 3.99951 15C3.99951 16.5914 4.63171 18.1177 5.75702 19.243C6.88233 20.3683 8.40859 21.0005 10 21.0005C11.5915 21.0005 13.1177 20.3683 14.243 19.243L20.5 13" stroke="#959595" stroke-width="2" stroke-linecap="round" stroke-linejoin="round"/>
</svg>
