<svg width="24" height="24" viewBox="0 0 24 24" fill="none" xmlns="http://www.w3.org/2000/svg">
<path d="M22.3462 18.9075H19.125C18.27 15.1575 12.9562 15.1575 12.1012 18.9075H1.65375C1.45484 18.9075 1.26407 18.9865 1.12342 19.1271C0.982765 19.2678 0.903748 19.4586 0.903748 19.6575C0.903748 19.8564 0.982765 20.0471 1.12342 20.1878C1.26407 20.3285 1.45484 20.4075 1.65375 20.4075H12.1125C12.9712 24.1575 18.285 24.1575 19.1362 20.4075H22.3462C22.5452 20.4075 22.7359 20.3285 22.8766 20.1878C23.0172 20.0471 23.0962 19.8564 23.0962 19.6575C23.0962 19.4586 23.0172 19.2678 22.8766 19.1271C22.7359 18.9865 22.5452 18.9075 22.3462 18.9075ZM15.6262 21.75C12.8587 21.6525 12.8587 17.6625 15.6262 17.565C18.3937 17.6625 18.3937 21.6525 15.6262 21.75Z" fill="black" fill-opacity="0.6"/>
<path d="M22.3462 11.25H10.695C9.84 7.5 4.52625 7.5 3.67125 11.25H1.65375C1.45484 11.25 1.26407 11.329 1.12342 11.4697C0.982765 11.6103 0.903748 11.8011 0.903748 12C0.903748 12.1989 0.982765 12.3897 1.12342 12.5303C1.26407 12.671 1.45484 12.75 1.65375 12.75H3.67125C4.52625 16.5 9.84 16.5 10.695 12.75H22.3462C22.5452 12.75 22.7359 12.671 22.8766 12.5303C23.0172 12.3897 23.0962 12.1989 23.0962 12C23.0962 11.8011 23.0172 11.6103 22.8766 11.4697C22.7359 11.329 22.5452 11.25 22.3462 11.25ZM7.185 14.0925C4.4175 14.0025 4.42125 9.99375 7.185 9.9075C9.94875 9.9975 9.94875 14.0063 7.185 14.0925Z" fill="black" fill-opacity="0.6"/>
<path d="M1.65375 5.09253H8.48625C9.345 8.84253 14.6587 8.84253 15.5137 5.09253H22.3462C22.5452 5.09253 22.7359 5.01351 22.8766 4.87286C23.0172 4.73221 23.0962 4.54144 23.0962 4.34253C23.0962 4.14362 23.0172 3.95285 22.8766 3.8122C22.7359 3.67155 22.5452 3.59253 22.3462 3.59253H15.5137C14.655 -0.157471 9.34125 -0.157471 8.48625 3.59253H1.65375C1.45484 3.59253 1.26407 3.67155 1.12342 3.8122C0.982765 3.95285 0.903748 4.14362 0.903748 4.34253C0.903748 4.54144 0.982765 4.73221 1.12342 4.87286C1.26407 5.01351 1.45484 5.09253 1.65375 5.09253V5.09253ZM12 2.25003C14.7675 2.34753 14.7675 6.33753 12 6.43503C9.2325 6.33753 9.2325 2.34753 12 2.25003Z" fill="black" fill-opacity="0.6"/>
</svg>
