<svg width="23" height="24" viewBox="0 0 23 24" fill="none" xmlns="http://www.w3.org/2000/svg">
<path d="M3.35279 18.6961L4.68446 20.0278L6.38446 18.3373L5.04335 16.9961L3.35279 18.6961ZM11.3333 6.33337C8.20724 6.33337 5.66668 8.87392 5.66668 12C5.66668 15.1261 8.20724 17.6667 11.3333 17.6667C14.4595 17.6667 17 15.1261 17 12C17 8.86448 14.4595 6.33337 11.3333 6.33337ZM18.8889 12.9445H21.7222V11.0556H18.8889V12.9445ZM16.2822 18.3373L17.9822 20.0278L19.3139 18.6961L17.6233 16.9961L16.2822 18.3373ZM19.3139 5.38892L17.9822 4.0667L16.2822 5.75726L17.6233 7.09837L19.3139 5.38892ZM12.2778 1.61115H10.3889V4.44448H12.2778V1.61115ZM6.38446 5.75726L4.68446 4.0667L3.35279 5.38892L5.04335 7.09837L6.38446 5.75726ZM0.944458 12.9445H3.77779V11.0556H0.944458V12.9445ZM12.2778 19.5556H10.3889V22.3889H12.2778" fill="#262626"/>
</svg>
