<svg width="26" height="26" viewBox="0 0 26 26" fill="none" xmlns="http://www.w3.org/2000/svg">
<path d="M9.45833 0.25C11.9005 0.25 14.2427 1.22016 15.9696 2.94706C17.6965 4.67396 18.6667 7.01613 18.6667 9.45833C18.6667 11.7392 17.8308 13.8358 16.4567 15.4508L16.8392 15.8333H17.9583L25.0417 22.9167L22.9167 25.0417L15.8333 17.9583V16.8392L15.4508 16.4567C13.7799 17.8829 11.6552 18.6665 9.45833 18.6667C7.01613 18.6667 4.67396 17.6965 2.94706 15.9696C1.22016 14.2427 0.25 11.9005 0.25 9.45833C0.25 7.01613 1.22016 4.67396 2.94706 2.94706C4.67396 1.22016 7.01613 0.25 9.45833 0.25ZM9.45833 3.08333C5.91667 3.08333 3.08333 5.91667 3.08333 9.45833C3.08333 13 5.91667 15.8333 9.45833 15.8333C13 15.8333 15.8333 13 15.8333 9.45833C15.8333 5.91667 13 3.08333 9.45833 3.08333Z" fill="black"/>
</svg>
