<svg width="100" height="54" viewBox="0 0 100 54" fill="none" xmlns="http://www.w3.org/2000/svg">
<rect width="100" height="54" rx="5" fill="#00A356"/>
<path d="M50.04 17.0001C44.58 17.0001 40.13 21.4501 40.13 26.9101C40.13 28.6601 40.59 30.3601 41.45 31.8601L40.05 37.0001L45.3 35.6201C46.75 36.4101 48.38 36.8301 50.04 36.8301C55.5 36.8301 59.9501 32.3801 59.9501 26.9201C59.9501 24.2701 58.92 21.7801 57.05 19.9101C56.1332 18.984 55.0412 18.2497 53.8377 17.7501C52.6341 17.2505 51.3432 16.9955 50.04 17.0001ZM50.05 18.6701C52.25 18.6701 54.31 19.5301 55.87 21.0901C56.6357 21.8554 57.2426 22.7644 57.6562 23.7648C58.0698 24.7653 58.2818 25.8375 58.2801 26.9201C58.2801 31.4601 54.58 35.1501 50.04 35.1501C48.56 35.1501 47.11 34.7601 45.85 34.0001L45.55 33.8301L42.43 34.6501L43.26 31.6101L43.06 31.2901C42.234 29.9787 41.7971 28.4599 41.8 26.9101C41.81 22.3701 45.5 18.6701 50.05 18.6701ZM46.53 22.3301C46.37 22.3301 46.1 22.3901 45.87 22.6401C45.65 22.8901 45 23.5001 45 24.7101C45 25.9301 45.89 27.1001 46 27.2701C46.14 27.4401 47.76 29.9401 50.25 31.0001C50.84 31.2701 51.3 31.4201 51.66 31.5301C52.25 31.7201 52.79 31.6901 53.22 31.6301C53.7 31.5601 54.68 31.0301 54.89 30.4501C55.1 29.8701 55.1 29.3801 55.04 29.2701C54.97 29.1701 54.81 29.1101 54.56 29.0001C54.31 28.8601 53.09 28.2601 52.87 28.1801C52.64 28.1001 52.5 28.0601 52.31 28.3001C52.15 28.5501 51.67 29.1101 51.53 29.2701C51.38 29.4401 51.24 29.4601 51 29.3401C50.74 29.2101 49.94 28.9501 49 28.1101C48.26 27.4501 47.77 26.6401 47.62 26.3901C47.5 26.1501 47.61 26.0001 47.73 25.8901C47.84 25.7801 48 25.6001 48.1 25.4501C48.23 25.3101 48.27 25.2001 48.35 25.0401C48.43 24.8701 48.39 24.7301 48.33 24.6101C48.27 24.5001 47.77 23.2601 47.56 22.7701C47.36 22.2901 47.16 22.3501 47 22.3401C46.86 22.3401 46.7 22.3301 46.53 22.3301Z" fill="#FAFAFA"/>
</svg>
