<svg width="100" height="54" viewBox="0 0 100 54" fill="none" xmlns="http://www.w3.org/2000/svg">
<rect width="100" height="54" rx="5" fill="#00ACEE"/>
<path d="M60.46 21C59.69 21.35 58.86 21.58 58 21.69C58.88 21.16 59.56 20.32 59.88 19.31C59.05 19.81 58.13 20.16 57.16 20.36C56.37 19.5 55.26 19 54 19C51.65 19 49.73 20.92 49.73 23.29C49.73 23.63 49.77 23.96 49.84 24.27C46.28 24.09 43.11 22.38 41 19.79C40.63 20.42 40.42 21.16 40.42 21.94C40.42 23.43 41.17 24.75 42.33 25.5C41.62 25.5 40.96 25.3 40.38 25V25.03C40.38 27.11 41.86 28.85 43.82 29.24C43.1908 29.4122 42.5301 29.4362 41.89 29.31C42.1616 30.1625 42.6936 30.9084 43.4111 31.4429C44.1285 31.9775 44.9955 32.2737 45.89 32.29C44.3737 33.4904 42.494 34.1393 40.56 34.13C40.22 34.13 39.88 34.11 39.54 34.07C41.44 35.29 43.7 36 46.12 36C54 36 58.33 29.46 58.33 23.79C58.33 23.6 58.33 23.42 58.32 23.23C59.16 22.63 59.88 21.87 60.46 21Z" fill="#FAFAFA"/>
</svg>
