<svg width="100" height="54" viewBox="0 0 100 54" fill="none" xmlns="http://www.w3.org/2000/svg">
<rect width="100" height="54" rx="5" fill="#3B5998"/>
<path d="M50 17.04C44.5 17.04 40 21.53 40 27.06C40 32.06 43.66 36.21 48.44 36.96V29.96H45.9V27.06H48.44V24.85C48.44 22.34 49.93 20.96 52.22 20.96C53.31 20.96 54.45 21.15 54.45 21.15V23.62H53.19C51.95 23.62 51.56 24.39 51.56 25.18V27.06H54.34L53.89 29.96H51.56V36.96C53.9164 36.5879 56.0622 35.3856 57.6099 33.5701C59.1576 31.7546 60.0054 29.4457 60 27.06C60 21.53 55.5 17.04 50 17.04Z" fill="#EEEEEE"/>
</svg>
