<svg width="16" height="16" viewBox="0 0 16 16" fill="none" xmlns="http://www.w3.org/2000/svg">
<path d="M15.3337 2.00667C15.3337 2.00667 13.9883 2.80133 13.2403 3.02667C12.8388 2.56501 12.3052 2.23779 11.7117 2.08928C11.1181 1.94077 10.4933 1.97813 9.92171 2.1963C9.3501 2.41447 8.85929 2.80293 8.51565 3.30914C8.17201 3.81535 7.99212 4.41489 8.00033 5.02667V5.69333C6.82875 5.72371 5.66784 5.46387 4.621 4.93696C3.57415 4.41005 2.67387 3.63242 2.00033 2.67333C2.00033 2.67333 -0.666341 8.67333 5.33366 11.34C3.96068 12.272 2.3251 12.7393 0.666992 12.6733C6.66699 16.0067 14.0003 12.6733 14.0003 5.00667C14.0003 4.82133 13.9817 4.636 13.947 4.45333C14.627 3.78267 15.3337 2.00667 15.3337 2.00667Z" stroke="black" stroke-width="0.5" stroke-linecap="round" stroke-linejoin="round"/>
</svg>
