<svg width="16" height="16" viewBox="0 0 16 16" fill="none" xmlns="http://www.w3.org/2000/svg">
<path d="M9.33333 8L7 9.33333V6.66667L9.33333 8Z" fill="black" stroke="black" stroke-width="1.5" stroke-linecap="round" stroke-linejoin="round"/>
<path d="M1.33301 8.47133V7.528C1.33301 5.598 1.33301 4.63267 1.93634 4.012C2.54034 3.39067 3.49101 3.364 5.39167 3.31C6.29167 3.28467 7.21167 3.26667 7.99967 3.26667C8.78701 3.26667 9.70701 3.28467 10.6077 3.31C12.5083 3.364 13.459 3.39067 14.0623 4.012C14.6663 4.63267 14.6663 5.59867 14.6663 7.528V8.47133C14.6663 10.402 14.6663 11.3667 14.063 11.988C13.459 12.6087 12.509 12.636 10.6077 12.6893C9.70767 12.7153 8.78767 12.7333 7.99967 12.7333C7.21234 12.7333 6.29234 12.7153 5.39167 12.6893C3.49101 12.636 2.54034 12.6093 1.93634 11.988C1.33301 11.3667 1.33301 10.4013 1.33301 8.472V8.47133Z" stroke="black" stroke-width="0.5"/>
</svg>
