<svg width="24" height="24" viewBox="0 0 24 24" fill="none" xmlns="http://www.w3.org/2000/svg">
<path d="M16.61 15.15C16.15 15.15 15.77 14.78 15.77 14.32C15.77 13.86 16.15 13.5 16.61 13.5C17.07 13.5 17.45 13.86 17.45 14.32C17.45 14.78 17.07 15.15 16.61 15.15ZM7.41 15.15C6.95 15.15 6.57 14.78 6.57 14.32C6.57 13.86 6.95 13.5 7.41 13.5C7.87 13.5 8.24 13.86 8.24 14.32C8.24 14.78 7.87 15.15 7.41 15.15ZM16.91 10.14L18.58 7.26001C18.67 7.09001 18.61 6.88001 18.45 6.79001C18.28 6.69001 18.07 6.75001 18 6.92001L16.29 9.83001C14.9442 9.21424 13.48 8.90024 12 8.91001C10.47 8.91001 9 9.24001 7.73 9.82001L6.04 6.91001C6.01878 6.86952 5.98948 6.83381 5.95391 6.8051C5.91833 6.77639 5.87725 6.75529 5.83319 6.74311C5.78913 6.73092 5.74304 6.72791 5.69776 6.73425C5.65249 6.7406 5.60901 6.75618 5.57 6.78001C5.4 6.87001 5.35 7.08001 5.44 7.25001L7.1 10.13C4.25 11.69 2.29 14.58 2 18H22C21.72 14.59 19.77 11.7 16.91 10.14Z" fill="#262626"/>
</svg>
