<svg width="100" height="54" viewBox="0 0 100 54" fill="none" xmlns="http://www.w3.org/2000/svg">
<rect width="100" height="54" rx="5" fill="#E11A21"/>
<path d="M47.04 36.54C48 36.83 48.97 37 50 37C52.6522 37 55.1957 35.9464 57.0711 34.0711C58.9464 32.1957 60 29.6522 60 27C60 25.6868 59.7413 24.3864 59.2388 23.1732C58.7362 21.9599 57.9997 20.8575 57.0711 19.9289C56.1425 19.0003 55.0401 18.2638 53.8268 17.7612C52.6136 17.2587 51.3132 17 50 17C48.6868 17 47.3864 17.2587 46.1732 17.7612C44.9599 18.2638 43.8575 19.0003 42.9289 19.9289C41.0536 21.8043 40 24.3478 40 27C40 31.25 42.67 34.9 46.44 36.34C46.35 35.56 46.26 34.27 46.44 33.38L47.59 28.44C47.59 28.44 47.3 27.86 47.3 26.94C47.3 25.56 48.16 24.53 49.14 24.53C50 24.53 50.4 25.16 50.4 25.97C50.4 26.83 49.83 28.06 49.54 29.24C49.37 30.22 50.06 31.08 51.06 31.08C52.84 31.08 54.22 29.18 54.22 26.5C54.22 24.1 52.5 22.46 50.03 22.46C47.21 22.46 45.55 24.56 45.55 26.77C45.55 27.63 45.83 28.5 46.29 29.07C46.38 29.13 46.38 29.21 46.35 29.36L46.06 30.45C46.06 30.62 45.95 30.68 45.78 30.56C44.5 30 43.76 28.18 43.76 26.71C43.76 23.55 46 20.68 50.32 20.68C53.76 20.68 56.44 23.15 56.44 26.43C56.44 29.87 54.31 32.63 51.26 32.63C50.29 32.63 49.34 32.11 49 31.5L48.33 33.87C48.1 34.73 47.47 35.88 47.04 36.57V36.54Z" fill="#FAFAFA"/>
</svg>
