<svg width="16" height="16" viewBox="0 0 16 16" fill="none" xmlns="http://www.w3.org/2000/svg">
<path d="M11.9929 1.064C11.3204 0.992659 10.6445 0.957941 9.96821 0.96C7.72621 0.96 6.33288 2.388 6.33288 4.68667V6.24733H4.44954C4.36114 6.24733 4.27635 6.28245 4.21384 6.34496C4.15133 6.40748 4.11621 6.49226 4.11621 6.58067V9.14733C4.11621 9.23574 4.15133 9.32052 4.21384 9.38304C4.27635 9.44555 4.36114 9.48067 4.44954 9.48067H6.33288V14.6273C6.33288 14.7157 6.368 14.8005 6.43051 14.863C6.49302 14.9255 6.57781 14.9607 6.66621 14.9607H9.31821C9.40662 14.9607 9.4914 14.9255 9.55391 14.863C9.61643 14.8005 9.65154 14.7157 9.65154 14.6273V9.48067H11.5289C11.6098 9.48071 11.688 9.4513 11.7488 9.39794C11.8097 9.34458 11.849 9.27091 11.8595 9.19067L12.1909 6.624C12.197 6.57695 12.1931 6.52914 12.1793 6.48374C12.1655 6.43834 12.1422 6.39641 12.1109 6.36076C12.0796 6.3251 12.041 6.29654 11.9978 6.27698C11.9546 6.25742 11.9077 6.24731 11.8602 6.24733H9.65154V4.94133C9.65154 4.29467 9.78154 4.02467 10.5902 4.02467H11.9495C12.0379 4.02467 12.1227 3.98955 12.1852 3.92704C12.2478 3.86452 12.2829 3.77974 12.2829 3.69133V1.39467C12.2829 1.31374 12.2535 1.23556 12.2002 1.17472C12.1468 1.11387 12.0731 1.07452 11.9929 1.064ZM11.6162 3.35733L10.5895 3.358C9.15154 3.358 8.98488 4.262 8.98488 4.94133V6.58133C8.98488 6.66962 9.01991 6.75431 9.08227 6.8168C9.14464 6.87929 9.22925 6.91449 9.31754 6.91467H11.4815L11.2355 8.81467H9.31821C9.22981 8.81467 9.14502 8.84978 9.08251 8.9123C9.02 8.97481 8.98488 9.05959 8.98488 9.148V14.2933H6.99954V9.148C6.99954 9.05959 6.96443 8.97481 6.90191 8.9123C6.8394 8.84978 6.75462 8.81467 6.66621 8.81467H4.78354V6.91467H6.66621C6.75462 6.91467 6.8394 6.87955 6.90191 6.81704C6.96443 6.75452 6.99954 6.66974 6.99954 6.58133V4.68667C6.99954 2.77067 8.10954 1.62667 9.96821 1.62667C10.6409 1.62667 11.2482 1.66333 11.6162 1.69533V3.35733Z" fill="black"/>
</svg>
