<svg width="16" height="16" viewBox="0 0 16 16" fill="none" xmlns="http://www.w3.org/2000/svg">
<path d="M7.99966 4.918C7.18208 4.918 6.398 5.24278 5.81988 5.82089C5.24177 6.399 4.91699 7.18309 4.91699 8.00067C4.91699 8.81824 5.24177 9.60233 5.81988 10.1804C6.398 10.7586 7.18208 11.0833 7.99966 11.0833C8.81723 11.0833 9.60132 10.7586 10.1794 10.1804C10.7575 9.60233 11.0823 8.81824 11.0823 8.00067C11.0823 7.18309 10.7575 6.399 10.1794 5.82089C9.60132 5.24278 8.81723 4.918 7.99966 4.918ZM7.99966 10.0027C7.46852 10.0027 6.95913 9.79167 6.58356 9.4161C6.20799 9.04052 5.99699 8.53114 5.99699 8C5.99699 7.46886 6.20799 6.95947 6.58356 6.5839C6.95913 6.20833 7.46852 5.99733 7.99966 5.99733C8.5308 5.99733 9.04019 6.20833 9.41576 6.5839C9.79133 6.95947 10.0023 7.46886 10.0023 8C10.0023 8.53114 9.79133 9.04052 9.41576 9.4161C9.04019 9.79167 8.5308 10.0027 7.99966 10.0027Z" fill="black"/>
<path d="M11.204 5.52333C11.6009 5.52333 11.9227 5.20158 11.9227 4.80467C11.9227 4.40776 11.6009 4.086 11.204 4.086C10.8071 4.086 10.4854 4.40776 10.4854 4.80467C10.4854 5.20158 10.8071 5.52333 11.204 5.52333Z" fill="black"/>
<path d="M13.6883 4.074C13.534 3.67545 13.2981 3.31352 12.9959 3.01137C12.6936 2.70922 12.3316 2.47351 11.933 2.31933C11.4665 2.14424 10.9738 2.04956 10.4756 2.03933C9.83364 2.01133 9.63031 2.00333 8.00231 2.00333C6.37431 2.00333 6.16564 2.00333 5.52898 2.03933C5.03124 2.04904 4.53881 2.14374 4.07298 2.31933C3.67427 2.47333 3.31215 2.70898 3.00987 3.01115C2.70758 3.31332 2.4718 3.67535 2.31764 4.074C2.14251 4.54041 2.04805 5.03323 2.03831 5.53133C2.00964 6.17267 2.00098 6.376 2.00098 8.00467C2.00098 9.63267 2.00098 9.84 2.03831 10.478C2.04831 10.9767 2.14231 11.4687 2.31764 11.936C2.47223 12.3345 2.70824 12.6964 3.0106 12.9985C3.31296 13.3006 3.67502 13.5364 4.07364 13.6907C4.5386 13.8728 5.03122 13.9743 5.53031 13.9907C6.17231 14.0187 6.37564 14.0273 8.00364 14.0273C9.63164 14.0273 9.84031 14.0273 10.477 13.9907C10.975 13.9805 11.4678 13.8861 11.9343 13.7113C12.3328 13.5568 12.6947 13.3209 12.997 13.0186C13.2992 12.7164 13.5351 12.3545 13.6896 11.956C13.865 11.4893 13.959 10.9973 13.969 10.4987C13.9976 9.85733 14.0063 9.654 14.0063 8.02533C14.0063 6.39667 14.0063 6.19 13.969 5.552C13.9612 5.04685 13.8663 4.54683 13.6883 4.074ZM12.8763 10.4287C12.872 10.8129 12.8019 11.1935 12.669 11.554C12.5689 11.8132 12.4156 12.0487 12.219 12.2451C12.0225 12.4416 11.7869 12.5947 11.5276 12.6947C11.1711 12.827 10.7946 12.8971 10.4143 12.902C9.78098 12.9313 9.60231 12.9387 7.97831 12.9387C6.35298 12.9387 6.18698 12.9387 5.54164 12.902C5.1616 12.8973 4.78519 12.8272 4.42898 12.6947C4.16877 12.5953 3.93231 12.4425 3.7349 12.246C3.5375 12.0495 3.38353 11.8137 3.28298 11.554C3.15194 11.1974 3.08185 10.8212 3.07564 10.4413C3.04698 9.808 3.04031 9.62933 3.04031 8.00533C3.04031 6.38067 3.04031 6.21467 3.07564 5.56867C3.07995 5.18468 3.15008 4.80428 3.28298 4.444C3.48631 3.918 3.90298 3.504 4.42898 3.30267C4.78537 3.17076 5.16166 3.10064 5.54164 3.09533C6.17564 3.06667 6.35364 3.05867 7.97831 3.05867C9.60298 3.05867 9.76964 3.05867 10.4143 3.09533C10.7946 3.09991 11.1712 3.17005 11.5276 3.30267C11.7869 3.40285 12.0224 3.55614 12.219 3.75269C12.4155 3.94924 12.5688 4.18471 12.669 4.444C12.8 4.80063 12.8701 5.17677 12.8763 5.55667C12.905 6.19067 12.9123 6.36867 12.9123 7.99333C12.9123 9.61733 12.9123 9.792 12.8836 10.4293H12.8763V10.4287Z" fill="black"/>
</svg>
