<svg width="15" height="12" viewBox="0 0 15 12" fill="none" xmlns="http://www.w3.org/2000/svg">
<path d="M4.25 0.75H14.75V2.25H4.25V0.75ZM4.25 6.75V5.25H14.75V6.75H4.25ZM2 0.375C2.29837 0.375 2.58452 0.493526 2.7955 0.704505C3.00647 0.915483 3.125 1.20163 3.125 1.5C3.125 1.79837 3.00647 2.08452 2.7955 2.2955C2.58452 2.50647 2.29837 2.625 2 2.625C1.70163 2.625 1.41548 2.50647 1.2045 2.2955C0.993526 2.08452 0.875 1.79837 0.875 1.5C0.875 1.20163 0.993526 0.915483 1.2045 0.704505C1.41548 0.493526 1.70163 0.375 2 0.375ZM2 4.875C2.29837 4.875 2.58452 4.99353 2.7955 5.2045C3.00647 5.41548 3.125 5.70163 3.125 6C3.125 6.29837 3.00647 6.58452 2.7955 6.7955C2.58452 7.00647 2.29837 7.125 2 7.125C1.70163 7.125 1.41548 7.00647 1.2045 6.7955C0.993526 6.58452 0.875 6.29837 0.875 6C0.875 5.70163 0.993526 5.41548 1.2045 5.2045C1.41548 4.99353 1.70163 4.875 2 4.875ZM4.25 11.25V9.75H14.75V11.25H4.25ZM2 9.375C2.29837 9.375 2.58452 9.49353 2.7955 9.70451C3.00647 9.91548 3.125 10.2016 3.125 10.5C3.125 10.7984 3.00647 11.0845 2.7955 11.2955C2.58452 11.5065 2.29837 11.625 2 11.625C1.70163 11.625 1.41548 11.5065 1.2045 11.2955C0.993526 11.0845 0.875 10.7984 0.875 10.5C0.875 10.2016 0.993526 9.91548 1.2045 9.70451C1.41548 9.49353 1.70163 9.375 2 9.375Z" fill="#262626"/>
</svg>
